<svg xmlns="http://www.w3.org/2000/svg" width="56" height="31" viewBox="0 0 56 31">
  <g id="ic-account" transform="translate(-1191 -401)">
    <path id="ic-account-2" data-name="ic-account" d="M1224.631,401.36a15.5,15.5,0,1,0,15.5,15.5A15.5,15.5,0,0,0,1224.631,401.36Zm0,6a5.5,5.5,0,1,1-5.5,5.5A5.5,5.5,0,0,1,1224.631,407.36Zm0,21.5a11.976,11.976,0,0,1-9.156-4.262,6.968,6.968,0,0,1,6.156-3.737,1.544,1.544,0,0,1,.444.068,7.791,7.791,0,0,0,5.112,0,1.545,1.545,0,0,1,.444-.068,6.969,6.969,0,0,1,6.156,3.737A11.977,11.977,0,0,1,1224.631,428.859Z" transform="translate(6.868 -0.36)" fill="#d5a285"/>
    <rect id="Rectangle_76" data-name="Rectangle 76" width="56" height="31" transform="translate(1191 401)" fill="none"/>
  </g>
</svg>
