<svg id="ic-add-photo" xmlns="http://www.w3.org/2000/svg" width="28" height="28" viewBox="0 0 28 28">
  <path id="Path_102" data-name="Path 102" d="M0,0H28V28H0Z" fill="none"/>
  <path id="Path_103" data-name="Path 103" d="M20.646,23.143H4.331V6.827H14.819V4.5H4.331A2.338,2.338,0,0,0,2,6.827V23.143a2.338,2.338,0,0,0,2.331,2.331H20.646a2.338,2.338,0,0,0,2.331-2.331V12.654H20.646Zm-9.078-3.694L9.284,16.7l-3.2,4.114H18.9l-4.126-5.489ZM22.977,4.5V1H20.646V4.5h-3.5c.012.012,0,2.331,0,2.331h3.5v3.485c.012.012,2.331,0,2.331,0V6.827h3.5V4.5Z" transform="translate(0.351 0.176)" fill="#d5a285"/>
</svg>
