<svg id="ic-backstage" xmlns="http://www.w3.org/2000/svg" width="26" height="26" viewBox="0 0 26 26">
  <path id="Path_92" data-name="Path 92" d="M0,0H26V26H0Z" fill="none"/>
  <path id="Path_93" data-name="Path 93" d="M6.454,14.805l1.291,2.228a.329.329,0,0,0,.4.14l1.6-.646a4.567,4.567,0,0,0,1.087.635l.237,1.711a.334.334,0,0,0,.323.269h2.583a.333.333,0,0,0,.323-.28l.237-1.711a4.789,4.789,0,0,0,1.087-.635l1.6.646a.329.329,0,0,0,.4-.14l1.291-2.228a.332.332,0,0,0-.075-.42l-1.367-1.065a4.057,4.057,0,0,0,.043-.624,6.29,6.29,0,0,0-.043-.635l1.367-1.065a.329.329,0,0,0,.075-.42L17.625,8.338a.329.329,0,0,0-.4-.14l-1.6.646a4.567,4.567,0,0,0-1.087-.635L14.3,6.5a.334.334,0,0,0-.323-.269H11.394a.333.333,0,0,0-.323.28l-.237,1.711a4.53,4.53,0,0,0-1.087.624L8.144,8.2a.329.329,0,0,0-.4.14L6.454,10.565a.332.332,0,0,0,.075.42L7.9,12.05a4.213,4.213,0,0,0-.054.635,6.291,6.291,0,0,0,.043.635L6.519,14.386a.329.329,0,0,0-.065.42Zm6.231-3.96a1.84,1.84,0,1,1-1.84,1.84A1.846,1.846,0,0,1,12.685,10.845ZM20.218,3H5.152A2.152,2.152,0,0,0,3,5.152V20.218a2.152,2.152,0,0,0,2.152,2.152H20.218a2.152,2.152,0,0,0,2.152-2.152V5.152A2.152,2.152,0,0,0,20.218,3Zm0,17.218H5.152V5.152H20.218Z" transform="translate(0.315 0.315)" fill="#d5a285"/>
</svg>
