<svg id="ic-export" xmlns="http://www.w3.org/2000/svg" width="26" height="26" viewBox="0 0 26 26">
  <path id="Path_128" data-name="Path 128" d="M0,0H26V26H0Z" fill="none"/>
  <path id="Path_129" data-name="Path 129" d="M17.083,9.5H14.321V6.25H11.179V9.5H8.417l4.333,4.333ZM20.333,3H5.156A2.157,2.157,0,0,0,3,5.167V20.333A2.157,2.157,0,0,0,5.156,22.5H20.333A2.173,2.173,0,0,0,22.5,20.333V5.167A2.173,2.173,0,0,0,20.333,3Zm0,17.333H5.167v-3.25H9.023a4.307,4.307,0,0,0,7.475,0h3.835Zm0-5.417H14.927a2.167,2.167,0,0,1-4.333,0H5.167l-.011-9.75H20.333Z" transform="translate(0.25 0.25)" fill="#fff"/>
</svg>
