<svg id="ic-folder" xmlns="http://www.w3.org/2000/svg" width="28" height="28" viewBox="0 0 28 28">
  <path id="Path_106" data-name="Path 106" d="M0,0H28V28H0Z" fill="none"/>
  <path id="Path_107" data-name="Path 107" d="M22.968,6.324H13.649L11.319,4H4.33A2.324,2.324,0,0,0,2.012,6.324L2,20.271A2.334,2.334,0,0,0,4.33,22.6H22.968a2.334,2.334,0,0,0,2.33-2.324V8.649A2.334,2.334,0,0,0,22.968,6.324Zm0,13.947H4.33V6.324h6.022l2.33,2.324H22.968ZM17.144,14.46a2.324,2.324,0,1,0-2.33-2.324A2.334,2.334,0,0,0,17.144,14.46Zm-4.66,4.649H21.8V17.947c0-1.546-3.11-2.324-4.66-2.324s-4.66.779-4.66,2.324Z" transform="translate(0.351 0.702)" fill="#d5a285"/>
</svg>
