<svg xmlns="http://www.w3.org/2000/svg" width="24" height="24" viewBox="0 0 24 24">
  <g id="ic-filter" transform="translate(0.438)">
    <g id="Group_169" data-name="Group 169">
      <rect id="Rectangle_110" data-name="Rectangle 110" width="24" height="24" transform="translate(-0.438)" fill="none"/>
    </g>
    <g id="Group_171" data-name="Group 171" transform="translate(1.739 3)">
      <g id="Group_170" data-name="Group 170">
        <path id="Path_148" data-name="Path 148" d="M20,3H4A2.006,2.006,0,0,0,2,5V19a2.006,2.006,0,0,0,2,2H20a2.006,2.006,0,0,0,2-2V5A2.006,2.006,0,0,0,20,3Zm0,16H4V5H20Z" transform="translate(-2 -3)" fill="#fff" fill-rule="evenodd"/>
        <path id="Path_149" data-name="Path 149" d="M19.41,10.42,17.99,9l-3.17,3.17-1.41-1.42L12,12.16,14.82,15Z" transform="translate(-2 -3)" fill="#fff" fill-rule="evenodd"/>
        <rect id="Rectangle_111" data-name="Rectangle 111" width="5" height="2" transform="translate(2.823 4)" fill="#fff"/>
        <rect id="Rectangle_112" data-name="Rectangle 112" width="5" height="2" transform="translate(2.823 8)" fill="#fff"/>
        <rect id="Rectangle_113" data-name="Rectangle 113" width="5" height="2" transform="translate(2.823 12)" fill="#fff"/>
      </g>
    </g>
  </g>
</svg>
