<svg id="ic-landcheck" xmlns="http://www.w3.org/2000/svg" width="26" height="26" viewBox="0 0 26 26">
  <path id="Path_83" data-name="Path 83" d="M0,0H26V26H0Z" fill="none"/>
  <path id="Path_84" data-name="Path 84" d="M12.658,1A8.673,8.673,0,0,0,4,9.666c0,6.033,7.533,14.45,7.857,14.807l.8.888.8-.888c.325-.357,7.857-8.774,7.857-14.807A8.673,8.673,0,0,0,12.658,1Zm0,21.09C10.3,19.263,6.165,13.5,6.165,9.666a6.494,6.494,0,1,1,12.987,0c0,4.149-4.6,10.139-6.494,12.424ZM11,12.016,9.1,10.1,7.561,11.637,11,15.082l6.5-6.51L15.981,7.033Z" transform="translate(0.342 0.085)" fill="#d5a285"/>
</svg>
