<svg id="ic-map" xmlns="http://www.w3.org/2000/svg" width="26" height="26" viewBox="0 0 26 26">
  <path id="Path_90" data-name="Path 90" d="M0,0H26V26H0Z" fill="none"/>
  <path id="Path_91" data-name="Path 91" d="M21.833,3l-.172.032L15.914,5.26,9.457,3,3.387,5.045A.542.542,0,0,0,3,5.561V21.833a.533.533,0,0,0,.538.538l.172-.032,5.747-2.228,6.457,2.26,6.069-2.045a.542.542,0,0,0,.387-.517V3.538A.533.533,0,0,0,21.833,3Zm-11.3,2.658,4.3,1.507V19.713l-4.3-1.507ZM5.152,6.723,8.381,5.637V18.227L5.152,19.476ZM20.218,18.647,16.99,19.734V7.154l3.228-1.248Z" transform="translate(0.315 0.315)" fill="#d5a285"/>
</svg>
