<svg id="ic-nowcheck" xmlns="http://www.w3.org/2000/svg" width="26" height="26" viewBox="0 0 26 26">
  <path id="Path_88" data-name="Path 88" d="M0,0H26V26H0Z" fill="none"/>
  <path id="Path_89" data-name="Path 89" d="M19.261,13.86v7.547H4.158V6.313H9.573a6.792,6.792,0,0,1,.518-2.156H4.158A2.163,2.163,0,0,0,2,6.313V21.408a2.163,2.163,0,0,0,2.158,2.156h15.1a2.163,2.163,0,0,0,2.158-2.156V16.017Zm-1.618,5.391H5.776l2.967-3.806,2.115,2.545,2.967-3.817Zm3.021-9.822a4.846,4.846,0,1,0-4.11,2.275,4.786,4.786,0,0,0,2.578-.755L22.5,14.313l1.532-1.531Zm-4.1.119a2.7,2.7,0,1,1,2.7-2.7A2.7,2.7,0,0,1,16.564,9.547Z" transform="translate(0.218 0.218)" fill="#d5a285"/>
</svg>
