<svg xmlns="http://www.w3.org/2000/svg" width="56" height="31" viewBox="0 0 56 31">
  <g id="ic-password" transform="translate(-1187 -493)">
    <path id="ic-password-2" data-name="ic-password" d="M1235.178,506.449h-1.405v-4.213a8.894,8.894,0,1,0-17.788,0v4.213h-1.4a2.809,2.809,0,0,0-2.809,2.808v11.237a2.808,2.808,0,0,0,2.809,2.807h20.6a2.809,2.809,0,0,0,2.81-2.807V509.257A2.81,2.81,0,0,0,1235.178,506.449Zm-6.085,0h-8.426v-4.213a4.213,4.213,0,0,1,8.426,0Z" transform="translate(3.228 0.659)" fill="#d5a285"/>
    <rect id="Rectangle_74" data-name="Rectangle 74" width="56" height="31" transform="translate(1187 493)" fill="none"/>
  </g>
</svg>
