<svg xmlns="http://www.w3.org/2000/svg" width="26.238" height="26.238" viewBox="0 0 26.238 26.238">
  <g id="ic-reset" transform="translate(-1732.095 -618.415)">
    <rect id="長方形_195" data-name="長方形 195" width="26.238" height="26.238" rx="5.248" transform="translate(1732.095 618.415)" fill="#d5a285"/>
    <path id="パス_94" data-name="パス 94" d="M1745.432,623.484v-2.939l-3.922,3.922,3.922,3.922V625.45a5.888,5.888,0,0,1,5.883,5.883,5.768,5.768,0,0,1-.686,2.746l1.431,1.431a7.829,7.829,0,0,0-6.628-12.026Zm0,13.727a5.888,5.888,0,0,1-5.882-5.883,5.763,5.763,0,0,1,.685-2.744l-1.431-1.427a7.829,7.829,0,0,0,6.628,12.017v2.939l3.923-3.922-3.923-3.922Z" fill="#fff"/>
  </g>
</svg>
