<svg id="ic-upload" xmlns="http://www.w3.org/2000/svg" width="28" height="28" viewBox="0 0 28 28">
  <path id="Path_104" data-name="Path 104" d="M0,0H28V28H0Z" fill="none"/>
  <path id="Path_105" data-name="Path 105" d="M22.575,11.02A8.752,8.752,0,0,0,6.242,8.7,6.969,6.969,0,0,0,7,22.6H22.167a5.794,5.794,0,0,0,.408-11.576Zm-.408,9.251H7a4.644,4.644,0,0,1-.513-9.263l1.248-.128.583-1.1a6.409,6.409,0,0,1,11.97,1.7l.35,1.743,1.785.128a3.467,3.467,0,0,1-.257,6.927ZM9.333,14.46h2.975v3.487h3.383V14.46h2.975L14,9.811Z" transform="translate(0 0.702)" fill="#d5a285"/>
</svg>
