<svg xmlns="http://www.w3.org/2000/svg" width="1084" height="582.626" viewBox="0 0 1084 582.626">
  <path id="login-bg-mobile" d="M774.1,1083H216.935V0H751.97c-1.777,11.838-3.327,24.435-4.607,37.441-2.493,25.352-3.991,52.575-4.577,83.223-.468,24.435-.362,51.123.334,83.99.428,20.221,1,38.665,1.74,56.385.835,19.879,1.858,38.258,3.134,56.188,1.372,19.275,3.047,37.977,4.98,55.586,2.072,18.877,4.521,37.24,7.278,54.578,3.651,22.957,7.817,45.844,11.847,67.978,3.781,20.77,7.69,42.246,11.148,63.645,1.861,11.516,3.447,22.1,4.85,32.36,1.574,11.512,2.879,22.32,3.988,33.043,2.087,20.166,3.69,40.716,4.767,61.081,1.082,20.482,1.656,41.251,1.7,61.731.056,23.072-.453,46.563-1.551,71.816-.979,22.5-2.407,45.877-4.367,71.478-3.64,47.556-8.608,95.7-13.412,142.251-1.7,16.437-3.452,33.433-5.127,50.226Z" transform="translate(1083.5 -216.435) rotate(90)" fill="#e8dec5" stroke="rgba(0,0,0,0)" stroke-width="1"/>
</svg>
