<svg xmlns="http://www.w3.org/2000/svg" width="1239.538" height="1084" viewBox="0 0 1239.538 1084">
  <path id="login-bg" d="M976.586,1083h-1194.6V0H936.833c-3.192,11.838-5.976,24.435-8.275,37.441-4.478,25.352-7.168,52.575-8.222,83.223-.841,24.435-.65,51.123.6,83.99.769,20.221,1.792,38.665,3.126,56.385,1.5,19.879,3.338,38.258,5.63,56.188,2.464,19.275,5.474,37.977,8.946,55.586,3.722,18.877,8.121,37.24,13.074,54.578,6.558,22.957,14.042,45.844,21.28,67.978,6.792,20.77,13.814,42.246,20.024,63.645,3.342,11.516,6.192,22.1,8.712,32.36,2.828,11.512,5.171,22.32,7.164,33.043,3.749,20.166,6.629,40.716,8.562,61.081,1.944,20.482,2.974,41.251,3.062,61.731.1,23.072-.813,46.563-2.786,71.816-1.758,22.5-4.324,45.877-7.844,71.478-6.539,47.556-15.462,95.7-24.091,142.251-3.047,16.437-6.2,33.433-9.209,50.226Z" transform="translate(218.515 0.5)" fill="#e8dec5" stroke="rgba(0,0,0,0)" stroke-width="1"/>
</svg>
