<svg xmlns="http://www.w3.org/2000/svg" xmlns:xlink="http://www.w3.org/1999/xlink" width="841.918" height="696.223" viewBox="0 0 841.918 696.223">
  <defs>
    <linearGradient id="linear-gradient" x1="0.481" y1="-0.262" x2="0.501" y2="0.629" gradientUnits="objectBoundingBox">
      <stop offset="0" stop-color="#298def"/>
      <stop offset="1" stop-color="#a5d0f3"/>
    </linearGradient>
    <linearGradient id="linear-gradient-2" x1="0.339" y1="1.328" x2="0.531" y2="0.371" xlink:href="#linear-gradient"/>
    <linearGradient id="linear-gradient-3" x1="0.5" y1="-6.349" x2="0.5" y2="0.822" xlink:href="#linear-gradient"/>
    <linearGradient id="linear-gradient-4" x1="0.5" y1="-10.991" x2="0.5" y2="-0.546" xlink:href="#linear-gradient"/>
    <linearGradient id="linear-gradient-5" x1="0.5" y1="-8.748" x2="0.5" y2="1.697" xlink:href="#linear-gradient"/>
    <linearGradient id="linear-gradient-6" x1="0.5" y1="-8.747" x2="0.5" y2="1.697" xlink:href="#linear-gradient"/>
  </defs>
  <g id="login-vision" transform="translate(160.707 -1479.944)">
    <g id="Group_66" data-name="Group 66" transform="translate(-216.402 1314)" opacity="0.7">
      <g id="Group_20" data-name="Group 20">
        <g id="Group_3" data-name="Group 3">
          <g id="Group_2" data-name="Group 2">
            <g id="Group_1" data-name="Group 1">
              <path id="Path_2" data-name="Path 2" d="M704.327,165.944H520.455a4.476,4.476,0,0,0-4.474,4.468V283.349a.485.485,0,0,0,.313.453,10.8,10.8,0,0,0,2.54.623,9.847,9.847,0,0,0,1.213.069H704.735a9.925,9.925,0,0,0,1.208-.069,10.633,10.633,0,0,0,2.541-.627.486.486,0,0,0,.313-.453V170.412A4.473,4.473,0,0,0,704.327,165.944Z" fill="#fff"/>
            </g>
          </g>
        </g>
        <g id="Group_6" data-name="Group 6">
          <g id="Group_5" data-name="Group 5">
            <g id="Group_4" data-name="Group 4">
              <path id="Path_3" data-name="Path 3" d="M708.941,171.43v5.31h-193.1v-5.31c0-2.961,1.891-5.373,4.212-5.373H704.735C707.051,166.057,708.941,168.469,708.941,171.43Z" fill="#d5a285"/>
            </g>
          </g>
        </g>
        <g id="Group_9" data-name="Group 9">
          <g id="Group_8" data-name="Group 8">
            <g id="Group_7" data-name="Group 7">
              <ellipse id="Ellipse_1" data-name="Ellipse 1" cx="1.492" cy="1.485" rx="1.492" ry="1.485" transform="translate(527.215 170.534)" fill="#fff"/>
            </g>
          </g>
        </g>
        <g id="Group_12" data-name="Group 12">
          <g id="Group_11" data-name="Group 11">
            <g id="Group_10" data-name="Group 10">
              <ellipse id="Ellipse_2" data-name="Ellipse 2" cx="1.492" cy="1.485" rx="1.492" ry="1.485" transform="translate(531.947 170.534)" fill="#fff"/>
            </g>
          </g>
        </g>
        <g id="Group_15" data-name="Group 15">
          <g id="Group_14" data-name="Group 14">
            <g id="Group_13" data-name="Group 13">
              <ellipse id="Ellipse_3" data-name="Ellipse 3" cx="1.492" cy="1.485" rx="1.492" ry="1.485" transform="translate(522.483 170.534)" fill="#fff"/>
            </g>
          </g>
        </g>
        <g id="Group_18" data-name="Group 18">
          <g id="Group_17" data-name="Group 17">
            <g id="Group_16" data-name="Group 16">
              <rect id="Rectangle_2" data-name="Rectangle 2" width="77.496" height="0.322" transform="translate(619.255 276.214)" fill="#fff"/>
            </g>
          </g>
        </g>
        <g id="Group_19" data-name="Group 19">
          <path id="Path_4" data-name="Path 4" d="M604.726,224.927c.592-12.867,1.666-26.4-.822-39.2H555.139a209.8,209.8,0,0,0,16.025,16.439c7.489,6.92,15.081,13.659,22.19,20.984q5.658,5.828,11.008,11.942C604.428,231.7,604.57,228.314,604.726,224.927Z" fill="#b0f4dd"/>
          <path id="Path_5" data-name="Path 5" d="M670.372,215.412c-1.617-.037-3.233-.081-4.849-.12q.669,9.273,1.341,18.545c.968,13.6,1.619,27.214,2.1,40.831H691.01a6.225,6.225,0,0,0,6.225-6.225V215.935Q683.8,215.713,670.372,215.412Z" fill="#b0f4dd"/>
          <path id="Path_6" data-name="Path 6" d="M664.025,254.638c-.722-13.162-1.738-26.3-2.688-39.45q-11.584-.291-23.169-.582c-5.322-.128-10.658-.129-15.977-.337-4.284-.167-8.543-.66-12.82-.192-.3,8.191-.86,16.388-.871,24.57a2.046,2.046,0,0,1-.234.973q2.625,3.108,5.174,6.277c6.58,8.207,12.924,16.588,19.595,24.726q1.658,2.022,3.313,4.045h28.529C664.655,267.988,664.391,261.31,664.025,254.638Z" fill="#b0f4dd"/>
          <path id="Path_7" data-name="Path 7" d="M660.929,209.486a16.772,16.772,0,0,1-.135-1.9,2.057,2.057,0,0,1,.058-.642c-.056-.578-.121-1.152-.154-1.7q-.52-8.7-1.106-17.39c-.048-.71-.1-1.419-.15-2.128H608.1c.139.794.28,1.588.393,2.387a132.964,132.964,0,0,1,1,21.8c4.661-.377,9.244.114,13.941.2q8.988.162,17.974.394,9.811.242,19.624.483C661,210.49,660.965,209.988,660.929,209.486Z" fill="#b0f4dd"/>
          <path id="Path_8" data-name="Path 8" d="M691.01,185.727H663.619q.45,6.5.855,12.995.242,3.836.47,7.672a22.533,22.533,0,0,1,.14,2.511c.12.441.041.317,0,.071,0,.023,0,.047-.005.07.048.683.1,1.365.147,2.047q16.007.384,32.013.681V191.952A6.225,6.225,0,0,0,691.01,185.727Z" fill="#b0f4dd"/>
          <path id="Path_9" data-name="Path 9" d="M561.912,274.668h69.067q-2.027-2.471-4.049-4.945c-6.6-8.093-12.789-16.5-19.439-24.552-1.4-1.688-2.816-3.355-4.245-5.013a2.4,2.4,0,0,1-1.978.5c-9.547-1.531-19.31-1.309-28.937-.889-3.2.139-6.4.3-9.6.46a2.131,2.131,0,0,1-.794.151c-.01,0-.018,0-.029,0Z" fill="#b0f4dd"/>
          <path id="Path_10" data-name="Path 10" d="M557.735,240.462c-3.751.157-7.5.272-11.262.274q-9.465.006-18.931.139v27.568a6.225,6.225,0,0,0,6.225,6.225h23.968Z" fill="#b0f4dd"/>
          <path id="Path_11" data-name="Path 11" d="M550.3,236.535c16.495-.264,33.088-2.431,49.521-.265q-6.181-6.942-12.739-13.536c-7.2-7.206-14.948-13.783-22.288-20.83a198.836,198.836,0,0,1-15.105-16.177H533.767a6.225,6.225,0,0,0-6.225,6.225V236.7C535.129,236.632,542.716,236.656,550.3,236.535Z" fill="#b0f4dd"/>
        </g>
        <rect id="Rectangle_3" data-name="Rectangle 3" width="47.034" height="11.924" rx="2.397" transform="translate(540.166 230.737)" fill="#fcee21"/>
        <rect id="Rectangle_4" data-name="Rectangle 4" width="47.034" height="11.924" rx="2.397" transform="translate(588.871 198.75)" fill="#fcee21"/>
        <rect id="Rectangle_5" data-name="Rectangle 5" width="47.034" height="11.924" rx="2.397" transform="translate(632.441 222.576)" fill="#fcee21"/>
        <path id="Path_12" data-name="Path 12" d="M530.738,194.176v76.236l5.791,2.117h92.286l-77.521-82.235-14.059-1.765S530.738,189.235,530.738,194.176Z" fill="none" stroke="#fcee21" stroke-miterlimit="10" stroke-width="1"/>
      </g>
      <g id="Group_58" data-name="Group 58">
        <g id="Group_35" data-name="Group 35">
          <g id="Group_34" data-name="Group 34">
            <g id="Group_33" data-name="Group 33">
              <g id="Group_32" data-name="Group 32">
                <g id="Group_31" data-name="Group 31">
                  <g id="Group_30" data-name="Group 30">
                    <g id="Group_29" data-name="Group 29">
                      <g id="Group_21" data-name="Group 21">
                        <path id="Path_13" data-name="Path 13" d="M794.2,376.032H651.616A1.029,1.029,0,0,1,650.588,375V234.332H795.223V375A1.027,1.027,0,0,1,794.2,376.032Z" fill="#fff"/>
                      </g>
                      <g id="Group_22" data-name="Group 22">
                        <path id="Path_14" data-name="Path 14" d="M789.1,219.35H656.714a6.126,6.126,0,0,0-6.126,6.126v8.857H795.223v-8.857A6.124,6.124,0,0,0,789.1,219.35Z" fill="#d5a285"/>
                      </g>
                      <g id="Group_28" data-name="Group 28">
                        <g id="Group_26" data-name="Group 26">
                          <g id="Group_23" data-name="Group 23">
                            <circle id="Ellipse_4" data-name="Ellipse 4" cx="2.856" cy="2.856" r="2.856" transform="translate(655.958 223.986)" fill="#f1f3f4"/>
                          </g>
                          <g id="Group_24" data-name="Group 24">
                            <circle id="Ellipse_5" data-name="Ellipse 5" cx="2.856" cy="2.856" r="2.856" transform="translate(665.414 223.986)" fill="#f1f3f4"/>
                          </g>
                          <g id="Group_25" data-name="Group 25">
                            <circle id="Ellipse_6" data-name="Ellipse 6" cx="2.856" cy="2.856" r="2.856" transform="translate(674.87 223.986)" fill="#f1f3f4"/>
                          </g>
                        </g>
                        <g id="Group_27" data-name="Group 27">
                          <path id="Path_15" data-name="Path 15" d="M789.569,228.538H733.548a.285.285,0,0,1-.285-.285v-2.824a.285.285,0,0,1,.285-.285h56.021a.284.284,0,0,1,.285.285v2.824A.284.284,0,0,1,789.569,228.538Z" fill="#f1f3f4"/>
                        </g>
                      </g>
                    </g>
                  </g>
                </g>
              </g>
            </g>
          </g>
        </g>
        <g id="Group_36" data-name="Group 36">
          <path id="Path_16" data-name="Path 16" d="M785.974,287.69H659.838a1.028,1.028,0,0,1-1.027-1.028V243.067a1.028,1.028,0,0,1,1.027-1.028H785.974A1.028,1.028,0,0,1,787,243.067v43.595A1.028,1.028,0,0,1,785.974,287.69Z" fill="#d9dee2"/>
        </g>
        <g id="Group_37" data-name="Group 37">
          <path id="Path_17" data-name="Path 17" d="M701.787,252.4H663.551a.285.285,0,0,1-.285-.284V249.29a.286.286,0,0,1,.285-.285h38.236a.285.285,0,0,1,.285.285v2.825A.283.283,0,0,1,701.787,252.4Z" fill="#f1f3f4"/>
        </g>
        <g id="Group_38" data-name="Group 38">
          <path id="Path_18" data-name="Path 18" d="M695.651,260.447h-32.1a.285.285,0,0,1-.285-.284v-2.825a.286.286,0,0,1,.285-.285h32.1a.285.285,0,0,1,.284.285v2.825A.284.284,0,0,1,695.651,260.447Z" fill="#f1f3f4"/>
        </g>
        <g id="Group_45" data-name="Group 45">
          <g id="Group_39" data-name="Group 39">
            <path id="Path_19" data-name="Path 19" d="M782.248,304.453H663.564a.308.308,0,0,1-.308-.308v-3.058a.308.308,0,0,1,.308-.308H782.247a.308.308,0,0,1,.308.308v3.058A.307.307,0,0,1,782.248,304.453Z" fill="#d9dee2"/>
          </g>
          <g id="Group_40" data-name="Group 40">
            <path id="Path_20" data-name="Path 20" d="M782.248,317.459H663.564a.308.308,0,0,1-.308-.309v-3.058a.308.308,0,0,1,.308-.308H782.247a.308.308,0,0,1,.308.308v3.058A.308.308,0,0,1,782.248,317.459Z" fill="#d9dee2"/>
          </g>
          <g id="Group_41" data-name="Group 41">
            <circle id="Ellipse_7" data-name="Ellipse 7" cx="4.984" cy="4.984" r="4.984" transform="translate(759.679 297.632)" fill="#39b54a"/>
          </g>
          <g id="Group_42" data-name="Group 42">
            <path id="Path_21" data-name="Path 21" d="M782.248,330.463H663.564a.308.308,0,0,1-.308-.309V327.1a.308.308,0,0,1,.308-.308H782.247a.308.308,0,0,1,.308.308v3.058A.307.307,0,0,1,782.248,330.463Z" fill="#d9dee2"/>
          </g>
          <g id="Group_43" data-name="Group 43">
            <circle id="Ellipse_8" data-name="Ellipse 8" cx="4.984" cy="4.984" r="4.984" transform="translate(674.617 323.641)" fill="#01b9ef"/>
          </g>
          <g id="Group_44" data-name="Group 44">
            <circle id="Ellipse_9" data-name="Ellipse 9" cx="4.984" cy="4.984" r="4.984" transform="translate(709.502 310.637)" fill="#ef9f00"/>
          </g>
        </g>
        <g id="Group_57" data-name="Group 57">
          <g id="Group_47" data-name="Group 47">
            <g id="Group_46" data-name="Group 46">
              <path id="Path_22" data-name="Path 22" d="M717.741,358.394H696.818a1.837,1.837,0,0,1-1.837-1.837V342.025a1.837,1.837,0,0,1,1.837-1.837h20.923a1.837,1.837,0,0,1,1.837,1.837v14.532A1.836,1.836,0,0,1,717.741,358.394Z" fill="#00a99d"/>
            </g>
          </g>
          <g id="Group_50" data-name="Group 50">
            <g id="Group_49" data-name="Group 49">
              <g id="Group_48" data-name="Group 48">
                <path id="Path_23" data-name="Path 23" d="M750.993,358.394H727.011a.308.308,0,0,1-.308-.308V340.5a.308.308,0,0,1,.308-.308h23.982a.307.307,0,0,1,.308.308v17.59A.308.308,0,0,1,750.993,358.394Z" fill="#fab001"/>
              </g>
            </g>
          </g>
          <g id="Group_53" data-name="Group 53">
            <g id="Group_52" data-name="Group 52">
              <g id="Group_51" data-name="Group 51">
                <path id="Path_24" data-name="Path 24" d="M687.546,358.394H663.564a.308.308,0,0,1-.308-.308V340.5a.308.308,0,0,1,.308-.308h23.982a.307.307,0,0,1,.308.308v17.59A.308.308,0,0,1,687.546,358.394Z" fill="#00569d"/>
              </g>
            </g>
          </g>
          <g id="Group_56" data-name="Group 56">
            <g id="Group_55" data-name="Group 55">
              <g id="Group_54" data-name="Group 54">
                <path id="Path_25" data-name="Path 25" d="M782.248,358.394H758.266a.308.308,0,0,1-.308-.308V340.5a.308.308,0,0,1,.308-.308h23.982a.308.308,0,0,1,.308.308v17.59A.309.309,0,0,1,782.248,358.394Z" fill="#01b9ef"/>
              </g>
            </g>
          </g>
        </g>
      </g>
      <g id="Group_62" data-name="Group 62">
        <g id="Group_59" data-name="Group 59">
          <path id="Path_26" data-name="Path 26" d="M252.153,301.6H173.032a2.811,2.811,0,0,0-2.811,2.811v7.026h84.743v-7.026A2.811,2.811,0,0,0,252.153,301.6Z" fill="#d5a285"/>
          <path id="Path_27" data-name="Path 27" d="M254.973,311.438v43.976a2.817,2.817,0,0,1-2.819,2.819H173.04a2.8,2.8,0,0,1-2.819-2.819V311.438Z" fill="#fff"/>
          <path id="Path_28" data-name="Path 28" d="M177.194,306.519a1.222,1.222,0,1,1-1.222-1.222A1.223,1.223,0,0,1,177.194,306.519Zm3.257-1.222a1.223,1.223,0,1,0,1.222,1.222A1.222,1.222,0,0,0,180.451,305.3Zm4.479,0a1.223,1.223,0,1,0,1.222,1.222A1.222,1.222,0,0,0,184.93,305.3Z" fill="#c3dfef"/>
        </g>
        <g id="Group_60" data-name="Group 60">
          <path id="Path_29" data-name="Path 29" d="M194.339,317.476a17.019,17.019,0,0,0-12.033,29.052l12.033-12.034Z" fill="#fcee21"/>
          <path id="Path_30" data-name="Path 30" d="M194.339,317.476v17.018h17.019A17.018,17.018,0,0,0,194.339,317.476Z" fill="#29abe2"/>
          <path id="Path_31" data-name="Path 31" d="M182.306,346.528a17.019,17.019,0,0,0,29.052-12.034H194.339Z" fill="#8cc63f"/>
        </g>
        <g id="Group_61" data-name="Group 61">
          <rect id="Rectangle_6" data-name="Rectangle 6" width="23.977" height="5.452" rx="0.057" transform="translate(216.672 317.476)" fill="#ccc" style="mix-blend-mode: multiply;isolation: isolate"/>
          <path id="Path_32" data-name="Path 32" d="M220.334,328.533v1.987a.837.837,0,0,1-.837.837h-1.988a.836.836,0,0,1-.836-.837v-1.987a.836.836,0,0,1,.836-.837H219.5A.837.837,0,0,1,220.334,328.533Zm28.973-.837H223.615a.837.837,0,0,0-.837.837v1.987a.837.837,0,0,0,.837.837h25.692a.837.837,0,0,0,.837-.837v-1.987A.837.837,0,0,0,249.307,327.7Z" fill="#ccc" style="mix-blend-mode: multiply;isolation: isolate"/>
          <path id="Path_33" data-name="Path 33" d="M220.334,335.051v1.987a.837.837,0,0,1-.837.837h-1.988a.836.836,0,0,1-.836-.837v-1.987a.836.836,0,0,1,.836-.837H219.5A.837.837,0,0,1,220.334,335.051Zm28.973-.837H223.615a.837.837,0,0,0-.837.837v1.987a.837.837,0,0,0,.837.837h25.692a.837.837,0,0,0,.837-.837v-1.987A.837.837,0,0,0,249.307,334.214Z" fill="#ccc" style="mix-blend-mode: multiply;isolation: isolate"/>
          <path id="Path_34" data-name="Path 34" d="M220.334,341.569v1.987a.837.837,0,0,1-.837.837h-1.988a.836.836,0,0,1-.836-.837v-1.987a.836.836,0,0,1,.836-.837H219.5A.837.837,0,0,1,220.334,341.569Zm28.973-.837H223.615a.837.837,0,0,0-.837.837v1.987a.837.837,0,0,0,.837.837h25.692a.837.837,0,0,0,.837-.837v-1.987A.837.837,0,0,0,249.307,340.732Z" fill="#ccc" style="mix-blend-mode: multiply;isolation: isolate"/>
        </g>
      </g>
      <g id="Group_63" data-name="Group 63">
        <path id="Path_35" data-name="Path 35" d="M722.315,255.835l-9.3,6.644v11.415h7.322v-6.1h3.951v6.1h7.322V262.479Z" fill="#29abe2"/>
      </g>
      <g id="Group_64" data-name="Group 64">
        <path id="Path_36" data-name="Path 36" d="M743.7,255.835l-9.3,6.644v11.415h7.322v-6.1h3.951v6.1h7.322V262.479Z" fill="#29abe2"/>
      </g>
      <g id="Group_65" data-name="Group 65">
        <path id="Path_37" data-name="Path 37" d="M765.076,255.835l-9.3,6.644v11.415H763.1v-6.1h3.951v6.1h7.322V262.479Z" fill="#29abe2"/>
      </g>
    </g>
    <path id="Path_38" data-name="Path 38" d="M158.875,512.182c-8.191,4.921-16.33,10.418-23.269,16.987-8.784,8.315-12.208,20.953-18.02,32.288-4.03,7.862-5.136,16.263-8.279,24.735-6.547,17.649-16.83,32.831-24.05,50.052-1.007,2.4-1.963,5.239-1.034,7.686,1.24,3.266,4.893,3.717,7.889,3.7,18.329-.132,34.138.249,51.871,6.3,16.889,5.76,35.613,10.745,51.855,18.526,21.191,5.9,45.295,11.04,67.063,11.749,18.55.6,33.546-.378,47.948,17.449,3.806,4.712,7.1,10.495,7.539,17.029,1.246,18.348-19.328,30.421-19.116,48.827.1,8.88,5.375,16.759,11.821,21.149s13.947,5.9,21.291,7.127c39.717,6.629,79.834,4.895,119.712,5.964,6.8.182,13.614.194,20.413.066,6.125-.115,8.779-.281,11.232,7.128,1.511,4.562,5,9.87,9.081,11.511a58.746,58.746,0,0,0,15.232,3.872,114.741,114.741,0,0,0,12.016.531l20.9.194c7.471.07,14.943.139,22.414.141,7.93,0,15.931-.079,23.673-2.028,3.227-.812,6.492-2.008,8.988-4.464,5.55-5.461.945-12.122,4.339-18.5,3.024-5.681,9.07-8.551,14.447-10.318,18.3-6.017,38.489-5.054,56.338-12.228,4.44-1.784,8.646-4.13,13.15-5.746,5.264-1.888,10.833-2.744,16.361-3.589,18.811-2.877,37.674-5.759,56.692-6.43,12.3-.433,24.994-.005,36.436-4.537s21.39-15.78,19.753-27.978c-.476-3.546-1.884-6.936-2.147-10.505-.937-12.722,15.119-20.788,24.787-25.482a69.28,69.28,0,0,0,25.123-21.274c5.6-7.574,10.171-18.008,7.317-27.532-3.078-10.271,1.9-26.622-6.926-29.319-17.105-5.224-49.4,2.67-66.857-.479-13.207-2.383-30.492-.638-41.991-9.414-10.718-8.179-19.672-21.488-30.54-30.265-12.458-10.061-25.505-19.038-38.512-28.028-38.53-26.632-77.063-53.266-116.079-78.863-51.781-33.973-104.773-66.293-161.334-86.579-41.962-15.049-79.306-2.992-113.079,30.036-16.247,15.889-30.162,34.954-47.272,49.562-23.184,19.792-50.767,30.314-76.421,44.748C166.1,507.959,162.482,510.015,158.875,512.182Z" transform="translate(-216.402 1314)" fill="url(#linear-gradient)"/>
    <g id="Group_67" data-name="Group 67" transform="translate(-216.402 1314)">
      <path id="Path_39" data-name="Path 39" d="M806.271,509.889c-.061-.213-.121-.428-.184-.64a68.654,68.654,0,0,0-16.727-27.684c-7.444-7.7-16.2-13.794-25.3-19.026a40.069,40.069,0,0,0-8.281-3.618c-5.912-1.863-9.165-4.822-14-8.93-21.092-17.93-41.318-17.777-67.267-23.443-30.418-6.641-61.353-10.28-92.333-11.934q-5.294-.282-10.588-.481C599.5,433.562,640.232,462.586,685,496.688,740.941,501.186,782.246,506.426,806.271,509.889Z" fill="#8cc63f"/>
      <path id="Path_40" data-name="Path 40" d="M532.542,488.811c-40.63-30.861-76.119-54.575-100.564-70.083q-18.053,1.547-36.07,3.352c-12.1,1.2-24.268,2.616-35.863,6.523-4.721,1.591-19.144,7.367-19.229,14.38-.084,7.067,14.236,11.3,19.151,14.044,17.17,9.588,33.884,20.113,50.242,31.229C453.847,487.592,494.728,487.878,532.542,488.811Z" fill="#8cc63f"/>
      <path id="Path_41" data-name="Path 41" d="M685,496.688c-44.769-34.1-85.5-63.126-113.408-82.555-46.565-1.823-93.168.616-139.615,4.6,24.445,15.508,59.934,39.222,100.564,70.083C591.117,490.257,642.317,493.256,685,496.688Z" fill="#d2e266"/>
      <path id="Path_42" data-name="Path 42" d="M595.087,539.042c15.8,13.425,31.884,27.693,47.987,42.759,15.18.473,30.047,2.353,43.942,6.811,35.258,11.31,71.054,20.169,107.014,29.107a234.45,234.45,0,0,0,33.718,6.317c4.032.392,8.072.95,12.119,1.464C813,600.43,783.795,575.346,754.44,551.374A1529.164,1529.164,0,0,0,595.087,539.042Z" fill="#69b751"/>
      <path id="Path_43" data-name="Path 43" d="M852.4,567.651c-33.77-6.861-66.608-12.178-97.955-16.277C783.795,575.346,813,600.43,839.867,625.5a115.659,115.659,0,0,0,19.619,1.255c2.876-.126,6.264-.771,7.492-3.581a9.12,9.12,0,0,0,.561-3.313C868.236,601.113,862.94,582.419,852.4,567.651Z" fill="#d2e266"/>
      <path id="Path_44" data-name="Path 44" d="M481.213,540.873c14.484,11.411,28.855,23,43.2,34.558,6.16,4.962,11.732,7.8,17.405,9.333,7.528,2.035,15.235,1.771,24.732,1.125,24.279-1.651,50.849-4.887,76.525-4.088-16.1-15.066-32.187-29.334-47.987-42.759C541.342,537.7,501.108,539.572,481.213,540.873Z" fill="#d2e266"/>
      <path id="Path_45" data-name="Path 45" d="M595.087,539.042c-21.615-18.367-42.692-35.15-62.545-50.231-37.814-.933-78.7-1.219-122.333-.555,24.2,16.445,47.748,34.294,71,52.617C501.108,539.572,541.342,537.7,595.087,539.042Z" fill="#69b751"/>
      <path id="Path_46" data-name="Path 46" d="M532.542,488.811c19.853,15.081,40.93,31.864,62.545,50.231A1529.164,1529.164,0,0,1,754.44,551.374C731.016,532.245,707.5,513.826,685,496.688,642.317,493.256,591.117,490.257,532.542,488.811Z" fill="#8cc63f"/>
      <path id="Path_47" data-name="Path 47" d="M754.44,551.374c31.347,4.1,64.185,9.416,97.955,16.277-1.173-1.643-2.393-3.251-3.7-4.791-7.606-8.993-16.634-16.423-25.581-23.839-3.939-3.266-7.939-6.613-10.763-11.023-3.358-5.245-4.349-12.066-6.084-18.109-24.025-3.463-65.33-8.7-121.27-13.2C707.5,513.826,731.016,532.245,754.44,551.374Z" fill="#69b751"/>
    </g>
    <circle id="Ellipse_10" data-name="Ellipse 10" cx="62.254" cy="62.254" r="62.254" transform="translate(89.095 1597.353)" fill="#ffffcf"/>
    <circle id="Ellipse_11" data-name="Ellipse 11" cx="44.154" cy="44.154" r="44.154" transform="translate(107.195 1615.453)" fill="#fabb51"/>
    <path id="Path_51" data-name="Path 51" d="M301.842,361.3a64.416,64.416,0,0,1,12.411-.665c8.366.308,16.582,1.862,24.851,2.963,8.541,1.137,10.708-.259,16.844-5.161,12.628-10.088,27.544-18.283,42.452-24.947,13.255-5.926,27.263-10.616,41.813-12.373,13.158-1.59,25.484-.168,38.143,3.263,9.368,2.539,15.614,12.781,25.554,12.684,4.593-.045,8.736-2.453,12.624-4.759,13.277-7.875,27.795-15.759,43.457-15,8.631.416,16.877,3.467,24.622,7.084,17.155,8.013,32.5,18.938,46.139,31.345,13.367,12.159,21.377,27.363,36.548,37.393a25.341,25.341,0,0,0,5.278,2.911c4.042,1.46,8.563.883,12.9,1.069,12.967.558,24.229,8.95,34.744,16.342,16.822,11.827,29.137,29.626,40.293,47.287-46.651-2.809-92.166-13.128-138.563-16.519-17.694-1.293-35.465-1.339-53.215-1.383l-103.6-.261c-28.822-.072-57.7-.143-86.392,2.315-29.285,2.507-59.882,6.316-88.392,13.087-26.375,6.265-51.992,17.52-77.568,26.132-2.3-18.747,17.034-42.323,27.042-57.482,10.323-15.638,21.785-30.569,33.5-45.3,5.253-6.6,9.361-13.083,17.4-16.768A42.662,42.662,0,0,1,301.842,361.3Z" transform="translate(-216.402 1314)" fill="#0c9a9c"/>
    <path id="Path_52" data-name="Path 52" d="M192.507,448.241c3.87,2.077,6.741,6.243,5.907,10.489,4.795-1.019,9.949,1.972,12.017,6.416s1.265,9.919-1.457,14c-4.591,6.875-12.107,5.671-19.114,3.483a67.266,67.266,0,0,1-65.9,1.976c-4.525-2.435-7.428.1-11.914,1.049a22.436,22.436,0,0,1-13.723-1.516,17.88,17.88,0,0,1-7.231-5.748,13,13,0,0,1-2.465-8.8c.4-3.7,2.866-3.486,4.178-5.832,1.2-2.154-.03-5.982.6-8.53,2.693-10.9,15.732-11.425,23.908-6.44a12.024,12.024,0,0,1,6.872-8.486,20.824,20.824,0,0,1,11.107-1.517,7.167,7.167,0,0,0,2.93-.054,7.647,7.647,0,0,0,2.768-2.079c5.221-5.067,14.152-8.092,21.067-5.394,5.22,2.037,10.683,5.791,12.935,11.116,1.11,2.627.475,4.714,3.4,5.275,3.752.72,7.729-1.566,11.888-.324A11.923,11.923,0,0,1,192.507,448.241Z" transform="translate(-216.402 1314)" fill="#fff"/>
    <path id="Path_53" data-name="Path 53" d="M841.125,424.078c5.448,2.922,9.489,8.786,8.315,14.763,6.749-1.435,14,2.775,16.915,9.031s1.78,13.961-2.052,19.7c-6.462,9.677-17.04,7.982-26.9,4.9-27.553,17.03-64.227,18.13-92.751,2.781-6.369-3.427-10.454.135-16.769,1.478a31.581,31.581,0,0,1-19.315-2.135,25.159,25.159,0,0,1-10.177-8.09,18.289,18.289,0,0,1-3.469-12.389c.559-5.2,4.033-4.906,5.88-8.208,1.7-3.032-.043-8.42.843-12.006,3.79-15.349,22.143-16.082,33.651-9.065.876-5.254,4.863-9.654,9.672-11.945s10.335-2.687,15.633-2.134a10.091,10.091,0,0,0,4.124-.077c1.563-.5,2.719-1.784,3.9-2.926,7.349-7.132,19.919-11.39,29.653-7.592,7.347,2.867,15.036,8.152,18.205,15.646,1.563,3.7.669,6.636,4.784,7.425,5.281,1.013,10.88-2.2,16.733-.457A16.783,16.783,0,0,1,841.125,424.078Z" transform="translate(-216.402 1314)" fill="#fff"/>
    <path id="Path_54" data-name="Path 54" d="M883.083,539.676c2.946,1.58,5.131,4.751,4.5,7.983a8.582,8.582,0,0,1,9.146,4.883,11.144,11.144,0,0,1-1.109,10.652c-3.494,5.233-9.214,4.316-14.548,2.651a51.2,51.2,0,0,1-50.153,1.5c-3.443-1.853-5.653.073-9.067.8a17.086,17.086,0,0,1-10.445-1.155,13.6,13.6,0,0,1-5.5-4.374,9.9,9.9,0,0,1-1.876-6.7c.3-2.815,2.181-2.653,3.18-4.439.917-1.639-.023-4.553.456-6.492,2.049-8.3,11.973-8.7,18.2-4.9a9.151,9.151,0,0,1,5.23-6.459,15.839,15.839,0,0,1,8.453-1.154,5.465,5.465,0,0,0,2.23-.042,5.824,5.824,0,0,0,2.107-1.582c3.974-3.857,10.771-6.159,16.034-4.105,3.973,1.55,8.131,4.407,9.844,8.46.846,2,.362,3.588,2.587,4.015,2.856.548,5.883-1.192,9.048-.247A9.064,9.064,0,0,1,883.083,539.676Z" transform="translate(-216.402 1314)" fill="#fff"/>
    <path id="Path_55" data-name="Path 55" d="M489.557,329.917s-86.668,3.188-199.209,130.522l67.946-12.5s25.9-68.966,145.616-110.868Z" transform="translate(-216.402 1314)" fill="url(#linear-gradient-2)"/>
    <path id="Path_56" data-name="Path 56" d="M384.185,829.669c-2.6.653-5.531,1.676-6.651,4.557-1.08,2.782.136,6.23,2.145,8.133s4.616,2.6,7.137,3.143c13.86,2.975,28.04,2.795,42.12,2.6l39.706-.534c3.069-.042,6.528-.287,8.55-3.051,2.149-2.938,1.638-7.708-.354-10.8s-5.087-4.843-8.143-6.208C444.138,816.548,409.226,823.378,384.185,829.669Z" transform="translate(-216.402 1314)" fill="url(#linear-gradient-3)"/>
    <path id="Path_57" data-name="Path 57" d="M527.447,855.241c2.261-.568,4.816-1.458,5.79-3.967a6.914,6.914,0,0,0-1.867-7.081,12.4,12.4,0,0,0-6.214-2.736c-12.068-2.591-24.414-2.434-36.673-2.269l-34.571.465c-2.672.036-5.684.25-7.445,2.657-1.871,2.558-1.425,6.711.308,9.4s4.43,4.217,7.091,5.405C475.247,866.666,505.644,860.719,527.447,855.241Z" transform="translate(-216.402 1314)" fill="url(#linear-gradient-4)"/>
    <path id="Path_58" data-name="Path 58" d="M691.242,818.353c1.783-.448,3.8-1.15,4.566-3.129a5.454,5.454,0,0,0-1.472-5.583,9.768,9.768,0,0,0-4.9-2.157c-9.515-2.043-19.25-1.919-28.916-1.789l-27.259.367c-2.107.028-4.482.2-5.87,2.095-1.475,2.016-1.124,5.291.243,7.414a12.134,12.134,0,0,0,5.591,4.262C650.084,827.361,674.051,822.672,691.242,818.353Z" transform="translate(-216.402 1314)" fill="url(#linear-gradient-5)"/>
    <path id="Path_59" data-name="Path 59" d="M583.9,858.565a3.679,3.679,0,0,0,2.846-1.949,3.4,3.4,0,0,0-.918-3.48,6.081,6.081,0,0,0-3.053-1.344c-5.93-1.274-12-1.2-18.021-1.115l-16.988.228c-1.313.018-2.793.123-3.658,1.306a4.358,4.358,0,0,0,.151,4.621,7.568,7.568,0,0,0,3.484,2.656C558.248,864.179,573.185,861.257,583.9,858.565Z" transform="translate(-216.402 1314)" fill="url(#linear-gradient-6)"/>
    <path id="Path_60" data-name="Path 60" d="M306.532,450.743c4.162.174,8.44-.861,12.434.483,3.478,1.17,6.3,4,9.009,6.759,11.795,12.013,26.726,23.588,36.7,37.563,12.42,17.395-16.185,12.58-26.052,12.8l-99.331,2.192c-12.328.272-24.621,1.921-36.963,2.23a198.9,198.9,0,0,1-24.386-.645c-2.671-.262-24.2-2.1-24.314-3.225-.521-5.069,1.374-10.03,3.3-14.685a445.967,445.967,0,0,1,19.425-40.869c4.071-7.55,8.27-11.2,16.676-9.966,4.356.641,8.615,2.577,12.994,2.191,9.438-.833,12.636-10.919,19.762-15.97,6.205-4.4,15.859-6.762,22.864-8.623C271.407,414.931,284.441,449.824,306.532,450.743Z" transform="translate(-216.402 1314)" fill="#69b751"/>
    <path id="Path_61" data-name="Path 61" d="M156.308,504.567c19.768-7.139,42.287-7.235,62.157-12.817,30.344-8.524,62.2-8.731,93.265-6.736,16,1.027,35.719-.372,49.871,7.59,16.543,9.308,32.1,24.323,47.042,36.466,11.669,9.482,22.791,20.2,34.719,29.218,1.891,1.429,4.062,2.341,5.736,4.067,1.633,1.683,3.084,3.365,4.888,4.915a17.625,17.625,0,0,1,1.945,1.853c1.858,2.169,3.8,7.657.755,9.664-1.5.989-4.5.2-6.143.168-2.678-.057-5.357-.084-8.035-.146q-14.664-.339-29.329-.722c-19.552-.5-39.1-1.024-58.659-1.454q-25.221-.554-50.447-.827a764.893,764.893,0,0,0-106.679,6.86c-22.283,2.93-44.054,5.2-66.285,8.481-5.9.872-11.877,1.15-17.765,2.012-3.5.513-7.031,2.6-10.544,2.537-13.389-.24-11.663-15.25-7.234-24.134,10.015-20.089,22.113-39.367,38.361-53.954A66.8,66.8,0,0,1,156.308,504.567Z" transform="translate(-216.402 1314)" fill="#d2e266"/>
    <g id="Group_70" data-name="Group 70" transform="translate(-216.402 1314)">
      <path id="Path_62" data-name="Path 62" d="M410.824,603.257q-92.564.993-184.879,8.075-32.013,2.46-63.949,5.655c-15.461,1.546-31.538-.021-46.661,3.656-14.216,3.457-31.626,4.675-44.471,11.245C61.388,636.735,54.1,645.953,56,655.219c1.34,6.526,6.942,11.929,13.443,15.576s13.943,5.843,21.126,8.4a194.748,194.748,0,0,1,35.668,16.889c2.16,1.31,4.362,2.736,5.554,4.752,1.635,2.764,1.061,6.043,1.031,9.137-.156,16.122,18.4,30.631,37.125,28.361,25.2-3.055,51.286-2.363,77.058-2.682.652-.008,1.307.009,1.961.02C300,677.9,380.721,622.87,410.824,603.257Z" fill="#d4e366"/>
      <path id="Path_63" data-name="Path 63" d="M516.409,604.1q-17.784-.479-35.574-.734-35-.5-70.011-.112C380.721,622.87,300,677.9,248.964,735.673c15.042.271,30.577,5.6,45.579,7.788a403.668,403.668,0,0,0,51.026,4.4C394.657,686.612,483.134,625.86,516.409,604.1Z" fill="#8cc63f"/>
      <path id="Path_64" data-name="Path 64" d="M613,608.6a179.09,179.09,0,0,0-21.985-1.5q-18.663-1-37.343-1.753-18.625-.75-37.261-1.249c-33.275,21.757-121.752,82.509-170.84,143.758.968.018,1.935.048,2.9.057,32.753.3,66.217-2.472,99.185-2.926l3.694-.052C497.74,688.495,576.33,632.994,613,608.6Z" fill="#69b751"/>
      <path id="Path_65" data-name="Path 65" d="M686.007,625.41c-1.474-4.068-7.018-5.4-11.712-6.1-19.267-2.892-39.668-7.893-59.683-10.505-.539-.071-1.076-.135-1.614-.2C576.33,632.994,497.74,688.495,451.351,744.94c19.932-.288,39.967-.78,59.438-4.557,19.793-3.839,38.584-10.994,56.985-18.592q21.939-9.06,43.4-19.03c16.793-7.8,33.587-16.177,47.034-28.121a91.482,91.482,0,0,0,27.459-43.082C686.233,629.541,686.724,627.388,686.007,625.41Z" fill="#8cc63f"/>
    </g>
    <path id="Path_66" data-name="Path 66" d="M734.241,630.713c7.766-10.852,17.394-17.63,28.4-15.331a11,11,0,0,0,4.045.47,11.131,11.131,0,0,0,4.482-2.507c10.018-7.707,20.228-14.974,30.955-19.251a61.311,61.311,0,0,1,21.789-4.461c4.736-.076,9.539.444,14.028,2.967,3.574,2.009,6.853,5.233,10.095,8.451C863.8,616.7,880.2,634.166,888.35,661.617c-4.133,4.344-9.283,4.69-14.165,4.85-25.494.838-50.992.14-76.488.173-12.878.017-25.757.215-38.63.895-6.394.338-12.927.323-19.286,1.467a57.7,57.7,0,0,1-17.465.759,2.7,2.7,0,0,1-1.648-.643c-3.268-3.157,1.891-16.137,3.183-19.228A98.747,98.747,0,0,1,734.241,630.713Z" transform="translate(-216.402 1314)" fill="#019a6e"/>
    <path id="Path_67" data-name="Path 67" d="M284.114,733.389c4.162.173,8.44-.862,12.435.483,3.477,1.17,6.3,4,9.008,6.758,11.795,12.013,26.726,23.589,36.7,37.563,12.42,17.4-16.186,12.58-26.053,12.8l-99.33,2.192c-13.849.3-100.978,12.088-90.1-20.476,3.853-11.536,8.1-23.2,15.261-32.451s17.847-15.812,28.58-14.233c4.357.641,8.615,2.577,12.994,2.19,9.438-.832,12.637-10.918,19.763-15.97,6.2-4.4,15.859-6.761,22.863-8.622C248.99,697.577,262.024,732.469,284.114,733.389Z" transform="translate(-216.402 1314)" fill="#69b751"/>
    <g id="Group_83" data-name="Group 83" transform="translate(-216.402 1314)">
      <g id="Group_77" data-name="Group 77">
        <path id="Path_68" data-name="Path 68" d="M133.672,613.234,115.7,635.026h-3.144l19.482-23.632Z" fill="#dd8e62"/>
        <path id="Path_69" data-name="Path 69" d="M199.11,616.2l3.451,20.4-2.1.282L197.4,620.148Z" fill="#dd8e62"/>
        <path id="Path_70" data-name="Path 70" d="M148.7,633.261v24.613H115.373V633.358l17.707-20.6Z" fill="#f9e9db"/>
        <path id="Path_71" data-name="Path 71" d="M157.786,634.634v23.24h-9.639V631.4Z" fill="#f9e9db"/>
        <path id="Path_72" data-name="Path 72" d="M191.843,634.44v23.433H157.786v-23.24Z" fill="#f9e9db"/>
        <path id="Path_73" data-name="Path 73" d="M132.038,611.394l14.767,23.632h10.98L148.462,616.4Z" fill="#dd8e62"/>
        <path id="Path_74" data-name="Path 74" d="M201.017,636.987v20.887h-9.174V634.927l5.813-18.528Z" fill="#f9e9db"/>
        <path id="Path_75" data-name="Path 75" d="M193.116,635.026,199.11,616.2l-50.648.2,9.324,18.627Z" fill="#dd8e62"/>
        <g id="Group_71" data-name="Group 71">
          <rect id="Rectangle_11" data-name="Rectangle 11" width="3.917" height="15.155" transform="translate(194.472 637.136)" fill="#31aacf"/>
          <rect id="Rectangle_12" data-name="Rectangle 12" width="3.917" height="0.588" transform="translate(194.472 642.87)" fill="#f9e9db"/>
        </g>
        <g id="Group_72" data-name="Group 72">
          <rect id="Rectangle_13" data-name="Rectangle 13" width="5.994" height="15.155" transform="translate(122.274 637.136)" fill="#31aacf"/>
          <rect id="Rectangle_14" data-name="Rectangle 14" width="5.994" height="0.588" transform="translate(122.274 642.87)" fill="#eee6d3"/>
        </g>
        <g id="Group_73" data-name="Group 73">
          <rect id="Rectangle_15" data-name="Rectangle 15" width="5.994" height="15.155" transform="translate(133.673 637.136)" fill="#31aacf"/>
          <rect id="Rectangle_16" data-name="Rectangle 16" width="5.994" height="0.588" transform="translate(133.673 642.87)" fill="#eee6d3"/>
        </g>
        <g id="Group_74" data-name="Group 74">
          <rect id="Rectangle_17" data-name="Rectangle 17" width="5.994" height="15.155" transform="translate(166.118 637.136)" fill="#31aacf"/>
          <rect id="Rectangle_18" data-name="Rectangle 18" width="5.994" height="0.588" transform="translate(166.118 642.87)" fill="#eee6d3"/>
        </g>
        <g id="Group_75" data-name="Group 75">
          <rect id="Rectangle_19" data-name="Rectangle 19" width="5.994" height="15.155" transform="translate(177.517 637.136)" fill="#31aacf"/>
          <rect id="Rectangle_20" data-name="Rectangle 20" width="5.994" height="0.588" transform="translate(177.517 642.87)" fill="#eee6d3"/>
        </g>
        <g id="Group_76" data-name="Group 76">
          <rect id="Rectangle_21" data-name="Rectangle 21" width="4.704" height="6.034" transform="translate(128.573 623.21)" fill="#31aacf"/>
        </g>
      </g>
      <g id="Group_82" data-name="Group 82">
        <g id="Group_81" data-name="Group 81">
          <g id="Group_79" data-name="Group 79">
            <g id="Group_78" data-name="Group 78">
              <ellipse id="Ellipse_12" data-name="Ellipse 12" cx="11.544" cy="12.463" rx="11.544" ry="12.463" transform="translate(98.746 602.842)" fill="#0c9a9c"/>
              <ellipse id="Ellipse_13" data-name="Ellipse 13" cx="11.544" cy="12.463" rx="11.544" ry="12.463" transform="translate(77.626 612.203)" fill="#0c9a9c"/>
              <ellipse id="Ellipse_14" data-name="Ellipse 14" cx="7.839" cy="8.463" rx="7.839" ry="8.463" transform="translate(89.169 602.842)" fill="#0c9a9c"/>
              <ellipse id="Ellipse_15" data-name="Ellipse 15" cx="7.839" cy="8.463" rx="7.839" ry="8.463" transform="translate(106.495 621.414)" fill="#0c9a9c"/>
            </g>
          </g>
          <g id="Group_80" data-name="Group 80">
            <path id="Path_76" data-name="Path 76" d="M101.817,624.321l2.016,33.553H99.8l1.979-33.553Z" fill="#c69c6d"/>
            <path id="Path_77" data-name="Path 77" d="M105.85,621.956c-.079,1.215-.273,2.418-.463,3.618s-.419,2.4-.664,3.586-.518,2.378-.836,3.558c-.16.59-.332,1.178-.532,1.763a28.005,28.005,0,0,0-.974,3.351l-.6-2.219a8.412,8.412,0,0,0,.769-1.489c.227-.54.434-1.1.629-1.66.39-1.128.738-2.28,1.063-3.44s.625-2.33.9-3.507S105.689,623.159,105.85,621.956Z" fill="#c69c6d"/>
            <path id="Path_78" data-name="Path 78" d="M95.433,629.878a16.527,16.527,0,0,0,1.494,2.971c.551.937,1.135,1.853,1.733,2.758,1.2,1.809,2.445,3.584,3.721,5.324l-1.128.87c-1.119-1.9-2.2-3.807-3.228-5.757-.513-.975-1.012-1.959-1.478-2.964a16.82,16.82,0,0,1-1.142-3.166Z" fill="#c69c6d"/>
            <path id="Path_79" data-name="Path 79" d="M110.268,632.5a16.06,16.06,0,0,1-1.919,2.672c-.685.828-1.4,1.63-2.124,2.419-1.452,1.576-2.95,3.109-4.47,4.6l.983,1.056c1.388-1.674,2.741-3.373,4.048-5.117.652-.872,1.292-1.757,1.9-2.667a16.279,16.279,0,0,0,1.6-2.925Z" fill="#c69c6d"/>
          </g>
          <ellipse id="Ellipse_16" data-name="Ellipse 16" cx="7.839" cy="8.463" rx="7.839" ry="8.463" transform="translate(91.962 609.582)" fill="#0c9a9c"/>
        </g>
      </g>
    </g>
    <g id="Group_91" data-name="Group 91" transform="translate(-216.402 1314)">
      <g id="Group_84" data-name="Group 84">
        <rect id="Rectangle_22" data-name="Rectangle 22" width="42.143" height="26.221" transform="translate(554.234 418.751)" fill="#fff"/>
        <path id="Path_80" data-name="Path 80" d="M553.673,420.577l23.285-12.826H530.742l-23.52,12.826Z" fill="#a67c52"/>
        <path id="Path_81" data-name="Path 81" d="M533.163,409.246l-21.071,11.331v24.395h42.143V420.577Z" fill="#fff"/>
        <rect id="Rectangle_23" data-name="Rectangle 23" width="23.472" height="16.682" transform="translate(521.054 428.293)" fill="#31aacf"/>
        <path id="Path_82" data-name="Path 82" d="M554.023,420.577l-23.285-12.826h46.216l23.52,12.826Z" fill="#c69c6d"/>
        <rect id="Rectangle_24" data-name="Rectangle 24" width="12.234" height="3.996" transform="translate(561.597 427.336)" fill="#31aacf"/>
        <rect id="Rectangle_25" data-name="Rectangle 25" width="12.234" height="3.996" transform="translate(578.617 427.336)" fill="#31aacf"/>
      </g>
      <g id="Group_87" data-name="Group 87">
        <g id="Group_85" data-name="Group 85">
          <rect id="Rectangle_26" data-name="Rectangle 26" width="2.059" height="12.576" transform="translate(507.397 432.399)" fill="#fff"/>
          <rect id="Rectangle_27" data-name="Rectangle 27" width="2.059" height="12.576" transform="translate(495.62 432.399)" fill="#fff"/>
          <rect id="Rectangle_28" data-name="Rectangle 28" width="2.059" height="12.576" transform="translate(483.844 432.399)" fill="#fff"/>
          <rect id="Rectangle_29" data-name="Rectangle 29" width="2.059" height="12.576" transform="translate(472.068 432.399)" fill="#fff"/>
        </g>
        <g id="Group_86" data-name="Group 86">
          <rect id="Rectangle_30" data-name="Rectangle 30" width="41.341" height="1.259" transform="translate(470.75 434.348)" fill="#fff"/>
          <rect id="Rectangle_31" data-name="Rectangle 31" width="41.341" height="1.259" transform="translate(470.75 441.768)" fill="#fff"/>
        </g>
      </g>
      <g id="Group_90" data-name="Group 90">
        <g id="Group_88" data-name="Group 88">
          <rect id="Rectangle_32" data-name="Rectangle 32" width="2.059" height="12.576" transform="translate(595.545 444.975) rotate(180)" fill="#fff"/>
          <rect id="Rectangle_33" data-name="Rectangle 33" width="2.059" height="12.576" transform="translate(607.321 444.975) rotate(180)" fill="#fff"/>
          <rect id="Rectangle_34" data-name="Rectangle 34" width="2.059" height="12.576" transform="translate(619.098 444.975) rotate(180)" fill="#fff"/>
          <rect id="Rectangle_35" data-name="Rectangle 35" width="2.059" height="12.576" transform="translate(630.874 444.975) rotate(180)" fill="#fff"/>
        </g>
        <g id="Group_89" data-name="Group 89">
          <rect id="Rectangle_36" data-name="Rectangle 36" width="41.341" height="1.259" transform="translate(632.192 435.606) rotate(180)" fill="#fff"/>
          <rect id="Rectangle_37" data-name="Rectangle 37" width="41.341" height="1.259" transform="translate(632.192 443.027) rotate(180)" fill="#fff"/>
        </g>
      </g>
    </g>
    <path id="Path_83" data-name="Path 83" d="M709.017,667.456c-2.683.112-5.44-.555-8.014.311-2.241.754-4.063,2.581-5.806,4.356-7.6,7.742-17.224,15.2-23.654,24.208-8.005,11.211,10.431,8.108,16.79,8.248l64.016,1.413c8.925.2,65.077,7.791,58.067-13.2-2.484-7.435-5.218-14.952-9.835-20.914s-11.5-10.191-18.42-9.173c-2.807.413-5.552,1.661-8.374,1.412-6.083-.537-8.144-7.037-12.737-10.293-4-2.834-10.22-4.357-14.734-5.556C731.654,644.376,723.254,666.863,709.017,667.456Z" transform="translate(-216.402 1314)" fill="#69b751"/>
    <line id="Line_1" data-name="Line 1" y2="94.722" transform="translate(-4.804 1668.664)" fill="none" stroke="#fff" stroke-miterlimit="10" stroke-width="1"/>
    <line id="Line_2" data-name="Line 2" y2="145.749" transform="translate(388.861 1598.494)" fill="none" stroke="#fff" stroke-miterlimit="10" stroke-width="1"/>
    <line id="Line_3" data-name="Line 3" y2="135.921" transform="translate(532.454 1690.031)" fill="none" stroke="#fff" stroke-miterlimit="10" stroke-width="1"/>
    <circle id="Ellipse_17" data-name="Ellipse 17" cx="3.294" cy="3.294" r="3.294" transform="translate(-8.364 1763.385)" fill="#fcee21"/>
    <circle id="Ellipse_18" data-name="Ellipse 18" cx="3.294" cy="3.294" r="3.294" transform="translate(385.567 1740.04)" fill="#fcee21"/>
    <circle id="Ellipse_19" data-name="Ellipse 19" cx="3.294" cy="3.294" r="3.294" transform="translate(529.16 1822.659)" fill="#fcee21"/>
    <g id="Group_133" data-name="Group 133" transform="translate(-216.402 1314)">
      <g id="Group_94" data-name="Group 94">
        <g id="Group_93" data-name="Group 93">
          <g id="Group_92" data-name="Group 92">
            <path id="Path_84" data-name="Path 84" d="M600.207,484.026V661.341a17.686,17.686,0,0,1-10.119,16.125l-.234.1a16.713,16.713,0,0,1-4.629,1.273,15.242,15.242,0,0,1-1.959.117H283.709a15.115,15.115,0,0,1-1.968-.117,16.887,16.887,0,0,1-4.628-1.265c-.081-.042-.162-.075-.242-.109a17.672,17.672,0,0,1-10.12-16.125V484.026c0-9.708,7.612-17.607,16.958-17.607H583.266C592.6,466.419,600.207,474.318,600.207,484.026Z" fill="#d5a285"/>
          </g>
        </g>
      </g>
      <g id="Group_97" data-name="Group 97">
        <g id="Group_96" data-name="Group 96">
          <g id="Group_95" data-name="Group 95">
            <path id="Path_85" data-name="Path 85" d="M583.529,477.759H285.294a7.261,7.261,0,0,0-7.257,7.247V668.187a.785.785,0,0,0,.509.734,17.426,17.426,0,0,0,4.119,1.01,15.866,15.866,0,0,0,1.968.112H584.19a16,16,0,0,0,1.959-.112,17.217,17.217,0,0,0,4.122-1.017.787.787,0,0,0,.507-.734V485.006A7.254,7.254,0,0,0,583.529,477.759Z" fill="#fff"/>
          </g>
        </g>
      </g>
      <g id="Group_100" data-name="Group 100">
        <g id="Group_99" data-name="Group 99">
          <g id="Group_98" data-name="Group 98">
            <path id="Path_86" data-name="Path 86" d="M591.013,486.658v8.612H277.8v-8.612c0-4.8,3.067-8.715,6.832-8.715H584.191C587.946,477.943,591.013,481.855,591.013,486.658Z" fill="#86cabd"/>
          </g>
        </g>
      </g>
      <g id="Group_103" data-name="Group 103">
        <g id="Group_102" data-name="Group 102">
          <g id="Group_101" data-name="Group 101">
            <ellipse id="Ellipse_20" data-name="Ellipse 20" cx="2.421" cy="2.409" rx="2.421" ry="2.409" transform="translate(296.258 485.205)" fill="#fff"/>
          </g>
        </g>
      </g>
      <g id="Group_106" data-name="Group 106">
        <g id="Group_105" data-name="Group 105">
          <g id="Group_104" data-name="Group 104">
            <ellipse id="Ellipse_21" data-name="Ellipse 21" cx="2.421" cy="2.409" rx="2.421" ry="2.409" transform="translate(303.933 485.205)" fill="#fff"/>
          </g>
        </g>
      </g>
      <g id="Group_109" data-name="Group 109">
        <g id="Group_108" data-name="Group 108">
          <g id="Group_107" data-name="Group 107">
            <ellipse id="Ellipse_22" data-name="Ellipse 22" cx="2.421" cy="2.409" rx="2.421" ry="2.409" transform="translate(288.584 485.205)" fill="#fff"/>
          </g>
        </g>
      </g>
      <g id="Group_112" data-name="Group 112">
        <g id="Group_111" data-name="Group 111">
          <g id="Group_110" data-name="Group 110">
            <rect id="Rectangle_39" data-name="Rectangle 39" width="125.696" height="0.523" transform="translate(446.485 552.2)" fill="#b3b3b3"/>
          </g>
        </g>
      </g>
      <g id="Group_115" data-name="Group 115">
        <g id="Group_114" data-name="Group 114">
          <g id="Group_113" data-name="Group 113">
            <rect id="Rectangle_40" data-name="Rectangle 40" width="125.696" height="0.523" transform="translate(448.63 607.057)" fill="#b3b3b3"/>
          </g>
        </g>
      </g>
      <g id="Group_118" data-name="Group 118">
        <g id="Group_117" data-name="Group 117">
          <g id="Group_116" data-name="Group 116">
            <rect id="Rectangle_41" data-name="Rectangle 41" width="125.696" height="0.523" transform="translate(445.544 656.614)" fill="#fff"/>
          </g>
        </g>
      </g>
      <path id="Path_87" data-name="Path 87" d="M408.168,586.317c1.651-1.451,3.742-2.669,4.392-4.764a2.937,2.937,0,0,1,.325-.838c.381-.544,1.263-.77,1.3-1.433a1.371,1.371,0,0,0-.507-.946l-1.349-1.408a1.527,1.527,0,0,1-1.556-.417,1.3,1.3,0,0,0-.246-.245c-.371-.238-1.491.854-2.064.968a17.347,17.347,0,0,1-3.229.2,4.365,4.365,0,0,1-2.422-.4c-1.516-1.01-2.239-3.426-2.218-5.133a.91.91,0,0,0-.038-.345.745.745,0,0,0-.226-.279,3.128,3.128,0,0,0-2.465-.708.55.55,0,0,1-.415-.036c-.234-.174-.029-.559-.13-.831s-.444-.33-.727-.31a2.868,2.868,0,0,0-1.562.6,8.374,8.374,0,0,0-1.384,1.691c-1.065,1.435-2.721,1.708-4.358,2.117-1.211,1.211-1.211,2.422-1.615,3.431a4.367,4.367,0,0,1-1.614,2.019c-.4.2-.4-.2-.807-.4a3.53,3.53,0,0,0-2.423.2A13.955,13.955,0,0,0,379,581.069a13.1,13.1,0,0,0-1.816,2.018,1.485,1.485,0,0,1-1.212.4,1.679,1.679,0,0,0-1.413.6c-.6.606-1.412,1.817-2.018,2.422a1.675,1.675,0,0,1-1.412.606h-1.413a3.382,3.382,0,0,0-2.221.606c-.807.605-1.614,1.816-2.22,2.22s-1.009,0-1.615-.2-1.412-.2-2.018-.4a2.068,2.068,0,0,1-1.211-1.009c-.2-.4-.2-.807-.4-1.009s-.606-.2-1.211,0-1.413.605-2.019.807a2.228,2.228,0,0,1-1.615,0c-.6-.2-1.412-.6-2.219-.807a9.832,9.832,0,0,0-2.423-.2h-2.22a2.988,2.988,0,0,1-1.412-.2,6.434,6.434,0,0,1-1.413-1.211,16.523,16.523,0,0,0-2.018-1.816,2.716,2.716,0,0,0-1.817-.4,13.31,13.31,0,0,0-2.825.2,9.448,9.448,0,0,0-2.019,1.009c-.807.4-2.018.807-3.229,1.413a17.174,17.174,0,0,1-3.431,1.615,5.548,5.548,0,0,1-2.624-.4,10.265,10.265,0,0,1-2.826-.808c-1.211-.6-2.826-1.816-4.238-2.623s-2.624-1.212-3.633-1.817a13.256,13.256,0,0,1-2.523-2.119l-3.008-3.007c-2.256,3.843-4.453,7.535-5.772,10.172a49.855,49.855,0,0,0-2.624,6.66,39.325,39.325,0,0,1-3.431,7.266c-.732,1.151-1.519,2.142-2.332,3.22a8.116,8.116,0,0,1,1.727.716c.4.3,1.211.3,1.614.505s.4.6.2,1.009-.605.807-.605,1.211.4.807.605,1.413.2,1.412.4,2.018a1.822,1.822,0,0,0,1.211,1.211c.605.2,1.413.2,2.018.4a2.7,2.7,0,0,1,1.413,1.211,7.977,7.977,0,0,0,1.816,2.22,19.143,19.143,0,0,0,4.037,2.22,11.824,11.824,0,0,1,3.229,1.614c.606.606.606,1.413,1.211,2.019a13.62,13.62,0,0,0,3.028,1.614,37.491,37.491,0,0,0,4.037,2.019,16.126,16.126,0,0,0,5.247,1.009c1.615,0,2.826-.4,3.633-.4a3.01,3.01,0,0,1,1.615.606c.4.2.807.2,1.009-.2s.2-1.211.4-1.816a3.61,3.61,0,0,1,1.009-1.413,3.082,3.082,0,0,0,1.009-1.817,22.811,22.811,0,0,1,.6-3.632c.4-1.01,1.212-1.413,1.817-2.221s1.009-2.018,1.413-2.624.807-.6,1.614-.6h2.826c.808,0,1.211,0,1.412.4s.2,1.212.4,1.615.605.4,1.009-.2.807-1.816,1.412-2.624a11.609,11.609,0,0,1,1.816-1.614c.4-.4.4-.808.808-.808a18.683,18.683,0,0,1,2.019.606c.807.2,1.615.2,2.22.4s1.009.6,1.614.2a12.82,12.82,0,0,0,2.019-2.421c.605-.808,1.009-1.212,1.412-1.212s.808.4,1.212.808.807.807,1.211.6.807-1.009,1.614-1.614a8.532,8.532,0,0,1,2.826-1.211c.807-.2,1.211-.2,1.413-.4s.2-.606.4-1.211a3.629,3.629,0,0,1,1.211-1.816,7.149,7.149,0,0,1,2.22-.606,9.822,9.822,0,0,0,2.624-1.211c1.009-.6,2.219-1.412,3.026-2.017.974-.73,1.229-.492,2.332-.4a17.027,17.027,0,0,0,2.864-.326,1.781,1.781,0,0,1,.639.018,8.544,8.544,0,0,1,.871.47,5.12,5.12,0,0,0,3.3.245,15.83,15.83,0,0,1,8.359.341,2.844,2.844,0,0,0,1.765.232c.361-.12.657-.4,1.025-.492.4-.1.892,0,1.186-.293.257-.256.214-.672.256-1.032.129-1.106,1.181-2.47,1.746-3.419.725-1.217,1.122-2.484,1.774-3.74a12.5,12.5,0,0,1,2.787-3.454Z" fill="#00a99d"/>
      <g id="Group_123" data-name="Group 123">
        <g id="Group_119" data-name="Group 119">
          <rect id="Rectangle_42" data-name="Rectangle 42" width="17.952" height="17.065" transform="translate(469.203 626.822)" fill="#ffedc5"/>
          <path id="Path_88" data-name="Path 88" d="M468.965,628.01l9.919-8.347H459.2l-10.019,8.347Z" fill="#a67c52"/>
          <path id="Path_89" data-name="Path 89" d="M460.227,620.636l-8.976,7.374v15.876H469.2V628.01Z" fill="#ffedc5"/>
          <rect id="Rectangle_43" data-name="Rectangle 43" width="9.999" height="10.857" transform="translate(455.069 633.031)" fill="#31aacf"/>
          <path id="Path_90" data-name="Path 90" d="M469.114,628.01l-9.919-8.347h19.687L488.9,628.01Z" fill="#c69c6d"/>
          <rect id="Rectangle_44" data-name="Rectangle 44" width="5.212" height="2.601" transform="translate(472.34 632.409)" fill="#31aacf"/>
          <rect id="Rectangle_45" data-name="Rectangle 45" width="5.212" height="2.601" transform="translate(479.59 632.409)" fill="#31aacf"/>
        </g>
        <g id="Group_122" data-name="Group 122">
          <g id="Group_120" data-name="Group 120">
            <rect id="Rectangle_46" data-name="Rectangle 46" width="0.737" height="6.877" transform="translate(475.785 643.888) rotate(180)" fill="#c69c6d"/>
            <rect id="Rectangle_47" data-name="Rectangle 47" width="0.737" height="6.877" transform="translate(480 643.888) rotate(180)" fill="#c69c6d"/>
            <rect id="Rectangle_48" data-name="Rectangle 48" width="0.737" height="6.877" transform="translate(484.215 643.888) rotate(180)" fill="#c69c6d"/>
            <rect id="Rectangle_49" data-name="Rectangle 49" width="0.737" height="6.877" transform="translate(488.429 643.888) rotate(180)" fill="#c69c6d"/>
          </g>
          <g id="Group_121" data-name="Group 121">
            <rect id="Rectangle_50" data-name="Rectangle 50" width="14.797" height="0.688" transform="translate(488.901 638.765) rotate(180)" fill="#c69c6d"/>
            <rect id="Rectangle_51" data-name="Rectangle 51" width="14.797" height="0.688" transform="translate(488.901 642.823) rotate(180)" fill="#c69c6d"/>
          </g>
        </g>
      </g>
      <g id="Group_124" data-name="Group 124">
        <path id="Path_91" data-name="Path 91" d="M305.029,544.062v13.3h-2.84v-13.3h-4.8V542.75h12.456v1.312Z"/>
        <path id="Path_92" data-name="Path 92" d="M322.148,557.361l-1.332-3.663h-6.5l-1.469,3.663h-1.429l5.8-14.611h2.664l5.386,14.611Zm-4.466-12.1-2.82,7.11h5.425Z"/>
        <path id="Path_93" data-name="Path 93" d="M327.691,557.361V542.75h2.88v14.611Z"/>
        <path id="Path_94" data-name="Path 94" d="M342.949,547.96a7.008,7.008,0,0,0-.411-2.311A2.606,2.606,0,0,0,340.8,544.1a3.044,3.044,0,0,0-2.527.549,6.005,6.005,0,0,0-1.978,4.25,8.722,8.722,0,0,0,.959,5.68,3.822,3.822,0,0,0,2.978,1.39,5.323,5.323,0,0,0,2.937-.724,7.146,7.146,0,0,0,2.429-2.586l.235.039a5.811,5.811,0,0,1-3.388,4.25,8.6,8.6,0,0,1-4,.392,5.582,5.582,0,0,1-3.29-1.606,6.491,6.491,0,0,1-1.567-3.016,10.105,10.105,0,0,1,.039-5.014,6.686,6.686,0,0,1,2.957-4.034,6.982,6.982,0,0,1,4.838-.843,5.076,5.076,0,0,1,3.526,2.292,6.425,6.425,0,0,1,.94,2.84Z"/>
        <path id="Path_95" data-name="Path 95" d="M357.228,557.361v-6.738h-6.15v6.738h-2.9V542.75h2.9v6.581h6.15V542.75h2.9v14.611Z"/>
        <path id="Path_96" data-name="Path 96" d="M374.288,555.109a4.171,4.171,0,0,1-1.939,1.7,8.618,8.618,0,0,1-5.406.392,5.127,5.127,0,0,1-3.271-2.017,5.264,5.264,0,0,1-.744-2.957v-9.48h2.879v10.439a2.727,2.727,0,0,0,1.391,2.546,5.574,5.574,0,0,0,5.033-.293,3.674,3.674,0,0,0,1.391-3.016V542.75h1.253V552.5A5.229,5.229,0,0,1,374.288,555.109Z"/>
        <path id="Path_97" data-name="Path 97" d="M386.432,557.38l-7.5-12.476V557.38h-1.253V542.75h3.31l7.345,12.163V542.75h1.253v14.63Z"/>
        <path id="Path_98" data-name="Path 98" d="M402.16,557.38v-1.488a7.213,7.213,0,0,1-2.918,1.429,5.966,5.966,0,0,1-4.054-.626,6.234,6.234,0,0,1-2.723-3.7,10.539,10.539,0,0,1,.079-5.779,6.688,6.688,0,0,1,5.268-4.426,7.211,7.211,0,0,1,4.74.842,5.423,5.423,0,0,1,2.37,4.349h-2.958a4.933,4.933,0,0,0-.548-2.606,2.56,2.56,0,0,0-2.292-1.39,3.6,3.6,0,0,0-2.7,1.253,6.128,6.128,0,0,0-1.37,3.839c-.079,1.861-.118,3.995.842,5.465a3.6,3.6,0,0,0,2.546,1.6,4.874,4.874,0,0,0,3.721-1.194v-2.821H400.3v-1.253h4.759v6.5Z"/>
      </g>
      <g id="Group_125" data-name="Group 125">
        <path id="Path_99" data-name="Path 99" d="M485.912,536.87l-10.026-19.449a2.92,2.92,0,0,0-5.237.091l-4.058,8.2a1.779,1.779,0,0,1-3.081.235l-2.046-3.116a2.921,2.921,0,0,0-5,.26l-7.332,13.754a2.336,2.336,0,0,0,2.061,3.436h32.641a2.336,2.336,0,0,0,2.077-3.407Z" fill="#00a99d"/>
      </g>
      <g id="Group_126" data-name="Group 126">
        <path id="Path_100" data-name="Path 100" d="M476.093,574.084l-8.578-5.862-8.579,5.862,8.578,5.862Z" fill="#8cc63f"/>
        <path id="Path_101" data-name="Path 101" d="M477.578,575.1,469,580.962l8.578,5.862,8.579-5.862Z" fill="#d5a285"/>
        <path id="Path_102" data-name="Path 102" d="M458.936,587.839l8.579,5.862,8.578-5.862-8.579-5.862Z" fill="#8cc63f"/>
        <path id="Path_103" data-name="Path 103" d="M457.451,575.1l-8.579,5.862,8.579,5.862,8.578-5.862Z" fill="#d5a285"/>
      </g>
      <g id="Group_128" data-name="Group 128">
        <g id="Group_127" data-name="Group 127">
          <rect id="Rectangle_52" data-name="Rectangle 52" width="6.025" height="6.025" transform="translate(497.679 516.301)" fill="#00a99d"/>
          <rect id="Rectangle_53" data-name="Rectangle 53" width="6.025" height="6.025" transform="translate(508.146 516.301)" fill="#00a99d"/>
          <rect id="Rectangle_54" data-name="Rectangle 54" width="6.025" height="6.025" transform="translate(518.612 516.301)" fill="#00a99d"/>
          <rect id="Rectangle_55" data-name="Rectangle 55" width="6.025" height="6.025" transform="translate(529.079 516.301)" fill="#00a99d"/>
          <rect id="Rectangle_56" data-name="Rectangle 56" width="6.025" height="6.025" transform="translate(539.546 516.301)" fill="#00a99d"/>
          <rect id="Rectangle_57" data-name="Rectangle 57" width="6.025" height="6.025" transform="translate(550.012 516.301)" fill="#00a99d"/>
        </g>
        <rect id="Rectangle_58" data-name="Rectangle 58" width="58.358" height="3.563" transform="translate(497.679 528.057)" fill="#ccc"/>
        <rect id="Rectangle_59" data-name="Rectangle 59" width="58.358" height="3.563" transform="translate(497.679 536.273)" fill="#ccc"/>
      </g>
      <g id="Group_130" data-name="Group 130">
        <g id="Group_129" data-name="Group 129">
          <rect id="Rectangle_60" data-name="Rectangle 60" width="6.025" height="6.025" transform="translate(497.679 569.194)" fill="#00a99d"/>
          <rect id="Rectangle_61" data-name="Rectangle 61" width="6.025" height="6.025" transform="translate(508.146 569.194)" fill="#00a99d"/>
          <rect id="Rectangle_62" data-name="Rectangle 62" width="6.025" height="6.025" transform="translate(518.612 569.194)" fill="#00a99d"/>
          <rect id="Rectangle_63" data-name="Rectangle 63" width="6.025" height="6.025" transform="translate(529.079 569.194)" fill="#00a99d"/>
        </g>
        <rect id="Rectangle_64" data-name="Rectangle 64" width="58.358" height="3.563" transform="translate(497.679 580.95)" fill="#ccc"/>
        <rect id="Rectangle_65" data-name="Rectangle 65" width="58.358" height="3.563" transform="translate(497.679 589.166)" fill="#ccc"/>
      </g>
      <g id="Group_132" data-name="Group 132">
        <g id="Group_131" data-name="Group 131">
          <rect id="Rectangle_66" data-name="Rectangle 66" width="6.025" height="6.025" transform="translate(497.679 622.087)" fill="#00a99d"/>
          <rect id="Rectangle_67" data-name="Rectangle 67" width="6.025" height="6.025" transform="translate(508.146 622.087)" fill="#00a99d"/>
          <rect id="Rectangle_68" data-name="Rectangle 68" width="6.025" height="6.025" transform="translate(518.612 622.087)" fill="#00a99d"/>
          <rect id="Rectangle_69" data-name="Rectangle 69" width="6.025" height="6.025" transform="translate(529.079 622.087)" fill="#00a99d"/>
          <rect id="Rectangle_70" data-name="Rectangle 70" width="6.025" height="6.025" transform="translate(539.546 622.087)" fill="#00a99d"/>
        </g>
        <rect id="Rectangle_71" data-name="Rectangle 71" width="58.358" height="3.563" transform="translate(497.679 633.843)" fill="#ccc"/>
        <rect id="Rectangle_72" data-name="Rectangle 72" width="58.358" height="3.563" transform="translate(497.679 642.059)" fill="#ccc"/>
      </g>
    </g>
    <g id="Group_150" data-name="Group 150" transform="translate(-216.402 1314)">
      <g id="Group_137" data-name="Group 137">
        <g id="Group_136" data-name="Group 136">
          <g id="Group_135" data-name="Group 135">
            <g id="Group_134" data-name="Group 134">
              <path id="Path_104" data-name="Path 104" d="M184.694,847.325a21.291,21.291,0,0,1-6.559-29.387l63.22-99.551L277.3,741.214l-63.22,99.552a21.29,21.29,0,0,1-29.386,6.559Z" fill="#fbb03b"/>
            </g>
          </g>
        </g>
      </g>
      <g id="Group_141" data-name="Group 141">
        <g id="Group_140" data-name="Group 140">
          <g id="Group_139" data-name="Group 139">
            <g id="Group_138" data-name="Group 138">
              <path id="Path_105" data-name="Path 105" d="M313.129,717.449l-11.92,18.772a17.032,17.032,0,0,1-23.509,5.247l-36.745-23.335a17.031,17.031,0,0,1-5.247-23.508l11.921-18.771Z" fill="#ff6757"/>
            </g>
          </g>
        </g>
      </g>
      <g id="Group_145" data-name="Group 145" opacity="0.43">
        <g id="Group_144" data-name="Group 144">
          <g id="Group_143" data-name="Group 143">
            <g id="Group_142" data-name="Group 142">
              <circle id="Ellipse_23" data-name="Ellipse 23" cx="93.725" cy="93.725" r="93.725" transform="translate(206.34 604.52) rotate(-45)" fill="#d1ebfa"/>
            </g>
          </g>
        </g>
      </g>
      <g id="Group_149" data-name="Group 149">
        <g id="Group_148" data-name="Group 148">
          <g id="Group_147" data-name="Group 147">
            <g id="Group_146" data-name="Group 146">
              <path id="Path_106" data-name="Path 106" d="M313.822,492.229a115.054,115.054,0,1,0,137.355,87.227A115.055,115.055,0,0,0,313.822,492.229Zm4.647,20.817a93.725,93.725,0,1,1-71.056,111.891A93.724,93.724,0,0,1,318.469,513.046Z" fill="#a67c52"/>
            </g>
          </g>
        </g>
      </g>
    </g>
    <g id="Group_152" data-name="Group 152" transform="translate(-216.402 1314)">
      <g id="Group_151" data-name="Group 151">
        <path id="Path_107" data-name="Path 107" d="M326.382,579.716a3.776,3.776,0,0,0-2.149,6.88c.89.631,1.087.782,1.4,1.38.247.472.649,1.3.649,1.3a.112.112,0,0,0,.1.061.113.113,0,0,0,.1-.061s.4-.83.649-1.3c.313-.6.509-.749,1.4-1.38a3.775,3.775,0,0,0-2.148-6.88Z" fill="#fbb03b"/>
      </g>
      <path id="Path_108" data-name="Path 108" d="M326.382,586.021a2.53,2.53,0,1,1,2.53-2.53A2.53,2.53,0,0,1,326.382,586.021Z" fill="#fff"/>
    </g>
    <g id="Group_154" data-name="Group 154" transform="translate(-216.402 1314)">
      <g id="Group_153" data-name="Group 153">
        <path id="Path_109" data-name="Path 109" d="M338.99,590.116a3.775,3.775,0,0,0-2.148,6.88c.89.631,1.086.782,1.4,1.379.248.473.649,1.3.649,1.3a.112.112,0,0,0,.2,0s.4-.829.649-1.3c.313-.6.51-.748,1.4-1.379a3.775,3.775,0,0,0-2.149-6.88Z" fill="#fbb03b"/>
      </g>
      <path id="Path_110" data-name="Path 110" d="M338.99,596.421a2.53,2.53,0,1,1,2.53-2.53A2.53,2.53,0,0,1,338.99,596.421Z" fill="#fff"/>
    </g>
    <g id="Group_156" data-name="Group 156" transform="translate(-216.402 1314)">
      <g id="Group_155" data-name="Group 155">
        <path id="Path_111" data-name="Path 111" d="M353.2,581.959a3.775,3.775,0,0,0-2.148,6.879c.89.632,1.086.782,1.4,1.38.248.473.65,1.3.65,1.3a.11.11,0,0,0,.1.062.112.112,0,0,0,.1-.062s.4-.829.649-1.3c.313-.6.51-.748,1.4-1.38a3.775,3.775,0,0,0-2.149-6.879Z" fill="#fbb03b"/>
      </g>
      <path id="Path_112" data-name="Path 112" d="M353.2,588.264a2.53,2.53,0,1,1,2.53-2.53A2.53,2.53,0,0,1,353.2,588.264Z" fill="#fff"/>
    </g>
    <g id="Group_158" data-name="Group 158" transform="translate(-216.402 1314)">
      <g id="Group_157" data-name="Group 157">
        <path id="Path_113" data-name="Path 113" d="M381.452,583.191a3.775,3.775,0,0,0-2.148,6.88c.89.631,1.086.782,1.4,1.379.248.473.649,1.3.649,1.3a.112.112,0,0,0,.2,0s.4-.829.649-1.3c.313-.6.51-.748,1.4-1.379a3.776,3.776,0,0,0-2.149-6.88Z" fill="#fbb03b"/>
      </g>
      <path id="Path_114" data-name="Path 114" d="M381.452,589.5a2.53,2.53,0,1,1,2.53-2.53A2.53,2.53,0,0,1,381.452,589.5Z" fill="#fff"/>
    </g>
    <g id="Group_160" data-name="Group 160" transform="translate(-216.402 1314)">
      <g id="Group_159" data-name="Group 159">
        <path id="Path_115" data-name="Path 115" d="M318.338,607.318a3.775,3.775,0,0,0-2.148,6.88c.89.631,1.086.782,1.4,1.38.248.472.649,1.3.649,1.3a.112.112,0,0,0,.2,0s.4-.83.649-1.3c.313-.6.51-.749,1.4-1.38a3.775,3.775,0,0,0-2.148-6.88Z" fill="#fbb03b"/>
      </g>
      <path id="Path_116" data-name="Path 116" d="M318.338,613.624a2.53,2.53,0,1,1,2.53-2.53A2.53,2.53,0,0,1,318.338,613.624Z" fill="#fff"/>
    </g>
    <g id="Group_161" data-name="Group 161" transform="translate(-216.402 1314)">
      <path id="Path_117" data-name="Path 117" d="M525.823,375.083c5.654,4.014,6.9,4.97,8.894,8.767,1.574,3.006,4.125,8.276,4.125,8.276a.71.71,0,0,0,1.27,0s2.552-5.27,4.126-8.276c1.987-3.8,3.238-4.753,8.9-8.767a23.994,23.994,0,1,0-27.31,0Z" fill="#ff6757" stroke="#fff" stroke-linecap="round" stroke-linejoin="round" stroke-width="2"/>
      <path id="Path_118" data-name="Path 118" d="M539.477,345.2a10.15,10.15,0,1,1-10.149,10.149A10.15,10.15,0,0,1,539.477,345.2Z" fill="#fff" stroke="#fff" stroke-linecap="round" stroke-linejoin="round" stroke-width="2"/>
    </g>
    <g id="Group_162" data-name="Group 162" transform="translate(-216.402 1314)">
      <path id="Path_119" data-name="Path 119" d="M654.614,526.012c5.655,4.014,6.9,4.97,8.895,8.767,1.573,3.006,4.125,8.276,4.125,8.276a.709.709,0,0,0,1.269,0s2.553-5.27,4.126-8.276c1.987-3.8,3.239-4.753,8.9-8.767a23.994,23.994,0,1,0-27.31,0Z" fill="#ff6757" stroke="#fff" stroke-linecap="round" stroke-linejoin="round" stroke-width="2"/>
      <path id="Path_120" data-name="Path 120" d="M668.268,496.131a10.15,10.15,0,1,1-10.149,10.149A10.151,10.151,0,0,1,668.268,496.131Z" fill="#fff" stroke="#fff" stroke-linecap="round" stroke-linejoin="round" stroke-width="2"/>
    </g>
    <g id="Group_163" data-name="Group 163" transform="translate(-216.402 1314)">
      <path id="Path_121" data-name="Path 121" d="M155.459,592.861c5.655,4.014,6.9,4.97,8.9,8.767,1.574,3.006,4.125,8.276,4.125,8.276a.709.709,0,0,0,1.269,0s2.553-5.27,4.127-8.276c1.986-3.8,3.238-4.753,8.894-8.767a23.993,23.993,0,1,0-27.31,0Z" fill="#ff6757" stroke="#fff" stroke-linecap="round" stroke-linejoin="round" stroke-width="2"/>
      <path id="Path_122" data-name="Path 122" d="M169.113,562.98a10.15,10.15,0,1,1-10.149,10.149A10.151,10.151,0,0,1,169.113,562.98Z" fill="#fff" stroke="#fff" stroke-linecap="round" stroke-linejoin="round" stroke-width="2"/>
    </g>
  </g>
</svg>
